<svg width="22" height="26" viewBox="0 0 22 26" fill="none" xmlns="http://www.w3.org/2000/svg">
<path d="M11.2881 0.68866C14.0729 0.68866 16.7436 1.77267 18.7127 3.70221C20.6818 5.63176 21.7881 8.24878 21.7881 10.9776C21.7881 15.3253 18.6704 20.0635 12.5158 25.2428C12.1736 25.5308 11.7372 25.689 11.2861 25.6887C10.8349 25.6883 10.3989 25.5293 10.0572 25.2406L9.65009 24.8945C3.76793 19.8503 0.788086 15.2282 0.788086 10.9776C0.788086 8.24878 1.89433 5.63176 3.86347 3.70221C5.8326 1.77267 8.50331 0.68866 11.2881 0.68866ZM11.2881 7.0203C10.217 7.0203 9.18982 7.43722 8.43246 8.17936C7.6751 8.92149 7.24962 9.92804 7.24962 10.9776C7.24962 12.0271 7.6751 13.0337 8.43246 13.7758C9.18982 14.5179 10.217 14.9348 11.2881 14.9348C12.3592 14.9348 13.3864 14.5179 14.1437 13.7758C14.9011 13.0337 15.3265 12.0271 15.3265 10.9776C15.3265 9.92804 14.9011 8.92149 14.1437 8.17936C13.3864 7.43722 12.3592 7.0203 11.2881 7.0203Z" fill="black"/>
</svg>
