<svg width="30" height="30" viewBox="0 0 30 30" fill="none" xmlns="http://www.w3.org/2000/svg">
<path d="M15.438 20.022C16.7199 20.022 17.9492 19.5128 18.8557 18.6063C19.7621 17.6999 20.2713 16.4705 20.2713 15.1887C20.2713 13.9068 19.7621 12.6774 18.8557 11.771C17.9492 10.8646 16.7199 10.3553 15.438 10.3553C14.1561 10.3553 12.9267 10.8646 12.0203 11.771C11.1139 12.6774 10.6047 13.9068 10.6047 15.1887C10.6047 16.4705 11.1139 17.6999 12.0203 18.6063C12.9267 19.5128 14.1561 20.022 15.438 20.022ZM14.2297 5.59449V1.89699C14.2297 1.57652 14.357 1.26918 14.5836 1.04257C14.8102 0.815966 15.1175 0.68866 15.438 0.68866C15.7585 0.68866 16.0658 0.815966 16.2924 1.04257C16.519 1.26918 16.6463 1.57652 16.6463 1.89699V5.59449C18.7766 5.86277 20.7569 6.8326 22.2748 8.35102C23.7928 9.86944 24.7621 11.85 25.0297 13.9803H28.7297C29.0501 13.9803 29.3575 14.1076 29.5841 14.3342C29.8107 14.5608 29.938 14.8682 29.938 15.1887C29.938 15.5091 29.8107 15.8165 29.5841 16.0431C29.3575 16.2697 29.0501 16.397 28.7297 16.397H25.0297C24.762 18.5277 23.7923 20.5085 22.2739 22.027C20.7554 23.5454 18.7746 24.5151 16.6439 24.7828L16.6463 24.8553V28.4803C16.6463 28.8008 16.519 29.1081 16.2924 29.3347C16.0658 29.5614 15.7585 29.6887 15.438 29.6887C15.1175 29.6887 14.8102 29.5614 14.5836 29.3347C14.357 29.1081 14.2297 28.8008 14.2297 28.4803V24.7828C12.099 24.5151 10.1181 23.5454 8.59968 22.027C7.08121 20.5085 6.1116 18.5277 5.84382 16.397H2.14632C1.82585 16.397 1.51851 16.2697 1.2919 16.0431C1.06529 15.8165 0.937988 15.5091 0.937988 15.1887C0.937988 14.8682 1.06529 14.5608 1.2919 14.3342C1.51851 14.1076 1.82585 13.9803 2.14632 13.9803H5.84382C6.11259 11.8505 7.08265 9.87079 8.60103 8.35329C10.1194 6.83579 12.0997 5.86687 14.2297 5.59933M8.18799 15.1887C8.18799 17.1115 8.95183 18.9555 10.3115 20.3152C11.6711 21.6748 13.5152 22.4387 15.438 22.4387C17.3608 22.4387 19.2049 21.6748 20.5645 20.3152C21.9242 18.9555 22.688 17.1115 22.688 15.1887C22.688 13.2658 21.9242 11.4218 20.5645 10.0621C19.2049 8.7025 17.3608 7.93866 15.438 7.93866C13.5152 7.93866 11.6711 8.7025 10.3115 10.0621C8.95183 11.4218 8.18799 13.2658 8.18799 15.1887Z" fill="black"/>
</svg>
